# xmcd CD database file
#
# Track frame offsets:
#	150
#	38387
#	71685
#	111428
#	152039
#	191993
#
# Disc length: 3052 seconds
#
# Revision: 0
# Processed by: cddbd v1.5.1PL0 Copyright (c) Steve Scherf et al.
# Submitted via: CDex 1.51
#
DISCID=4e0bea06
DTITLE=Ghalib - Shumona Roy Biswas
DYEAR=2002
DGENRE=New Age
TTITLE0=Baskey Dushwar Hai
TTITLE1=Ibn-Ey-Maryam
TTITLE2=Ishrat-E-Quatraa
TTITLE3=Zikra us Parivashka
TTITLE4=Dil Hi to Hai
TTITLE5=Dil-E-Nadaan Tujhe
EXTD=YEAR: 2002
EXTT0=
EXTT1=
EXTT2=
EXTT3=
EXTT4=
EXTT5=
PLAYORDER=
